<svg xmlns="http://www.w3.org/2000/svg" viewBox="0 0 190 190"><defs><style>.cls-1{fill:#f1f1f1;opacity:0.01;}.cls-2{fill:#fff;}</style></defs><title>adjust</title><g id="Layer_2" data-name="Layer 2"><g id="Layer_1-2" data-name="Layer 1"><rect class="cls-1" width="190" height="190"/><path class="cls-2" d="M146,85.28a7,7,0,0,1,5.59,2.49,5.08,5.08,0,0,1,1.13,3.49c0,.85-.59,1.27-1.59,1.26s-1.49-.45-1.47-1.26a3.13,3.13,0,0,0-2.5-3.07,4.07,4.07,0,0,0-3.46.53,2.57,2.57,0,0,0-.35,3.92,6.12,6.12,0,0,0,3.06,1.52,12,12,0,0,1,4.4,1.89,5.43,5.43,0,0,1,2,5.55,5,5,0,0,1-3.45,4.07,7.68,7.68,0,0,1-8-1.27,5,5,0,0,1-1.79-4.11c0-.8.56-1.25,1.48-1.26s1.59.41,1.56,1.21a3.33,3.33,0,0,0,3.06,3.18,4.74,4.74,0,0,0,2.27-.19,2.58,2.58,0,0,0,1.88-2,2.83,2.83,0,0,0-1-2.9,8.19,8.19,0,0,0-3.32-1.45,11.59,11.59,0,0,1-3.12-1.2,5.22,5.22,0,0,1-2.81-5.41,5.3,5.3,0,0,1,3.63-4.49A7.06,7.06,0,0,1,146,85.28Z"/><path class="cls-2" d="M120.43,93.43c0-2.19,0-4.38,0-6.58,0-.56.08-1.09.65-1.35a1.92,1.92,0,0,1,2,.12,1.06,1.06,0,0,1,.45.93c0,.47,0,.94,0,1.41,0,3.84,0,7.67,0,11.51a3.89,3.89,0,0,0,5.57,3.82,3.62,3.62,0,0,0,2.21-3.35c.06-.72,0-1.46,0-2.19,0-3.61,0-7.21,0-10.82a1.56,1.56,0,0,1,2.43-1.43,1.09,1.09,0,0,1,.6.78,6,6,0,0,1,.06.73V99.24a7.77,7.77,0,0,1-.44,2.87,6.4,6.4,0,0,1-5.75,4.22,7.15,7.15,0,0,1-5.49-1.55,6,6,0,0,1-2.26-4.67c-.06-2.22,0-4.45,0-6.68Z"/><path class="cls-2" d="M159.8,95.16c0-2,0-4,0-6,0-.41-.12-.52-.52-.5-.71,0-1.43,0-2.15,0s-1.19-.49-1.21-1.34a1.21,1.21,0,0,1,1.17-1.4q1.13,0,2.25,0c.36,0,.47-.08.46-.45,0-1.56,0-3.12,0-4.68,0-.58.09-1.1.67-1.35a2,2,0,0,1,1.91.12,1.21,1.21,0,0,1,.48,1.11c0,1.58,0,3.15,0,4.73,0,.45.14.53.55.52,1.57,0,3.15,0,4.73,0a1.21,1.21,0,0,1,1.25.59,1.69,1.69,0,0,1-.08,1.72,1,1,0,0,1-1,.44c-1.64,0-3.29,0-4.93,0-.42,0-.55.08-.55.52,0,3.82,0,7.64,0,11.46a2.81,2.81,0,0,0,1.47,2.77,3.19,3.19,0,0,0,3.37-.28,1.26,1.26,0,0,1,1.49-.18,1.52,1.52,0,0,1,.8,1.5,1.23,1.23,0,0,1-.54.95c-2.79,2-8.37,1.41-9.48-3.09a7,7,0,0,1-.17-1.64Z"/><path class="cls-2" d="M114.88,96.66c0,3.34.05,6.69,0,10a7.68,7.68,0,0,1-5,7.11,1.5,1.5,0,0,1-2.2-1.33,1.23,1.23,0,0,1,.79-1.37c2.48-1.08,3.44-3.06,3.43-5.64,0-6.24,0-12.48,0-18.72,0-.59.11-1.12.71-1.36a1.9,1.9,0,0,1,2,.18,1.25,1.25,0,0,1,.4,1.1q0,5,0,10Z"/><path class="cls-2" d="M111.85,81.55c0-.26,0-.52,0-.78a1.48,1.48,0,0,1,1.54-1.53,1.5,1.5,0,0,1,1.66,1.46,16.07,16.07,0,0,1,0,1.7,1.49,1.49,0,0,1-1.69,1.48,1.47,1.47,0,0,1-1.51-1.55Z"/><path class="cls-2" d="M43.15,71.87a23.13,23.13,0,1,0,23.18,23.5A23.11,23.11,0,0,0,43.15,71.87Zm-.44,43.26a20.14,20.14,0,1,1,20.6-20A20.18,20.18,0,0,1,42.71,115.13Z"/><path class="cls-2" d="M105.9,80.36a1,1,0,0,0-.5-.9,2,2,0,0,0-1.91-.08c-.58.27-.65.8-.65,1.36,0,1.74,0,3.48,0,5.22v.84l-.1,0-.13-.07a6.48,6.48,0,0,0-7.12-.63A6.22,6.22,0,0,0,92,92.07c0,2.53,0,5.07,0,7.6A6.45,6.45,0,0,0,93.49,104a7.54,7.54,0,0,0,9.41,1.25,6.32,6.32,0,0,0,3-5.77q0-9,0-18C105.9,81.11,105.91,80.73,105.9,80.36Zm-3.07,19.23a3.67,3.67,0,0,1-2.27,3.66,3.91,3.91,0,0,1-4.25-.63A4,4,0,0,1,95,99.52c0-1.23,0-2.47,0-3.7s0-2.5,0-3.75a3.8,3.8,0,0,1,3-3.85,3.86,3.86,0,0,1,4.84,3.91C102.87,94.62,102.89,97.1,102.83,99.59Z"/><path class="cls-2" d="M86.8,96c0-1.57,0-2.85,0-4.13a6.05,6.05,0,0,0-2.26-4.92,7.28,7.28,0,0,0-7.1-1.17A6.24,6.24,0,0,0,73,91.83,1.27,1.27,0,0,0,74.3,93.2a3.85,3.85,0,0,0,.59,0A1.21,1.21,0,0,0,76.05,92a6.77,6.77,0,0,1,.09-1,3.86,3.86,0,0,1,5-2.7A3.67,3.67,0,0,1,83.73,92c0,1.19-.06,1.28-1.24,1.55-1.6.37-3.2.71-4.8,1.1A6.19,6.19,0,0,0,74,96.88a5.77,5.77,0,0,0,.45,7,7.2,7.2,0,0,0,6.06,2.34,6.5,6.5,0,0,0,6.28-6.1C86.86,98.67,86.76,97.17,86.8,96Zm-3.07,2.11a9.83,9.83,0,0,1-.22,2.81,3.88,3.88,0,0,1-7.35,0,2.75,2.75,0,0,1,1.49-3.33,18.17,18.17,0,0,1,3.47-.94c.77-.21,1.55-.37,2.31-.58.26-.07.31,0,.3.24C83.72,96.87,83.73,97.47,83.73,98.07Z"/><path class="cls-2" d="M56.54,103.15c-.83-1.8-1.63-3.61-2.44-5.41q-3.68-8.2-7.34-16.4a.59.59,0,0,0-.65-.41c-1,0-1.89,0-2.84,0a.64.64,0,0,0-.72.47c-1.37,3.2-2.78,6.39-4.16,9.6-.15.35-.28.37-.6.21-.71-.36-1.44-.7-2.17-1a11.37,11.37,0,0,0-4.33-1A3.64,3.64,0,0,0,27.42,93a8.65,8.65,0,0,0,.95,3.8,33.07,33.07,0,0,0,3.93,6.08.49.49,0,0,0,.46.2q1.52,0,3,0a.44.44,0,0,0,.47-.3c.4-1,.82-1.91,1.25-2.85a.59.59,0,0,0,0-.55c-.33-.74-.65-1.49-1-2.23a4,4,0,0,0-.5-1c-.61,1.33-1.19,2.61-1.82,4a27.83,27.83,0,0,1-2.94-4.45,6.56,6.56,0,0,1-.8-2.19c-.1-.91.21-1.2,1.11-1.07a14.46,14.46,0,0,1,3.2,1,56.8,56.8,0,0,1,10,5.82c3.12,2.1,6.13,4.35,9.07,6.68.27.21.41.19.63,0,.63-.66,1.27-1.3,1.93-1.93A.52.52,0,0,0,56.54,103.15Zm-4.91-3.05-2.1-1.52c-2.61-1.87-5.27-3.68-8-5.33a3.87,3.87,0,0,0-.37-.24c-.3-.14-.32-.32-.19-.62q1.7-3.77,3.37-7.55l.3-.68L51.72,100Z"/></g></g></svg>