<svg xmlns="http://www.w3.org/2000/svg" viewBox="0 0 190 190"><defs><style>.cls-1{fill:#f1f1f1;opacity:0.01;}.cls-2{fill:#fff;}</style></defs><title>comp2</title><g id="Layer_2" data-name="Layer 2"><g id="Layer_1-2" data-name="Layer 1"><rect class="cls-1" width="190" height="190"/><path class="cls-2" d="M58.43,138.41a3.25,3.25,0,0,0,.59,0,2.94,2.94,0,0,0,.44-.13,2,2,0,0,0,.3-.18l.23-.18a1,1,0,0,1,.18-.13.33.33,0,0,1,.19-.06.34.34,0,0,1,.16,0,.21.21,0,0,1,.1.08l.71.85a3.94,3.94,0,0,1-1.4,1.07,4.52,4.52,0,0,1-1.85.36,3.65,3.65,0,0,1-1.52-.3,3.31,3.31,0,0,1-1.12-.83,3.48,3.48,0,0,1-.68-1.26,4.9,4.9,0,0,1-.24-1.56,5.94,5.94,0,0,1,.18-1.48,5.31,5.31,0,0,1,.49-1.28A4.82,4.82,0,0,1,56,132.3a5,5,0,0,1,1-.8A4.81,4.81,0,0,1,58.1,131a4.64,4.64,0,0,1,1.3-.17,4.45,4.45,0,0,1,.93.09,4,4,0,0,1,.76.27,2.61,2.61,0,0,1,.61.41,2.52,2.52,0,0,1,.46.52l-.71.82a.87.87,0,0,1-.17.16.5.5,0,0,1-.26.06.38.38,0,0,1-.19,0l-.18-.13-.2-.15a1.2,1.2,0,0,0-.27-.16,1.79,1.79,0,0,0-.37-.12,1.91,1.91,0,0,0-.51-.05,2.4,2.4,0,0,0-1.92.93,3.1,3.1,0,0,0-.57,1.1A4.64,4.64,0,0,0,56.6,136a3.61,3.61,0,0,0,.14,1,2.41,2.41,0,0,0,.38.77,1.75,1.75,0,0,0,.58.48A1.66,1.66,0,0,0,58.43,138.41Z"/><path class="cls-2" d="M73.81,134.87a5.83,5.83,0,0,1-.17,1.4,5.09,5.09,0,0,1-.49,1.25,5,5,0,0,1-.75,1,4.56,4.56,0,0,1-1,.81,5.38,5.38,0,0,1-1.2.52,5.15,5.15,0,0,1-1.37.18,3.9,3.9,0,0,1-1.6-.31,3.55,3.55,0,0,1-1.21-.86,3.78,3.78,0,0,1-.77-1.28A4.91,4.91,0,0,1,65,136a5.45,5.45,0,0,1,.17-1.41,5.76,5.76,0,0,1,.48-1.26,5.25,5.25,0,0,1,.77-1.05,4.82,4.82,0,0,1,1-.8,4.59,4.59,0,0,1,1.2-.52,5.09,5.09,0,0,1,1.37-.18,3.94,3.94,0,0,1,1.6.31,3.65,3.65,0,0,1,1.21.86,4,4,0,0,1,.76,1.29A4.82,4.82,0,0,1,73.81,134.87Zm-2.08,0a3.56,3.56,0,0,0-.13-1,2.34,2.34,0,0,0-.39-.79,1.91,1.91,0,0,0-.63-.5,2,2,0,0,0-.85-.18,2.33,2.33,0,0,0-1.11.26,2.44,2.44,0,0,0-.84.73,3.32,3.32,0,0,0-.53,1.12,5.48,5.48,0,0,0-.18,1.45,3.6,3.6,0,0,0,.13,1,2.06,2.06,0,0,0,.38.77,1.61,1.61,0,0,0,.63.5,1.9,1.9,0,0,0,.85.18,2.39,2.39,0,0,0,1.11-.25,2.41,2.41,0,0,0,.84-.72,3.76,3.76,0,0,0,.54-1.12A5.48,5.48,0,0,0,71.73,134.92Z"/><path class="cls-2" d="M82.29,136.8c.06-.14.13-.27.2-.4l.23-.4,2.78-4.77a.54.54,0,0,1,.31-.27,1.49,1.49,0,0,1,.36-.05h1.59L86.64,140H84.86l.64-5.28c0-.11,0-.23,0-.37l.09-.42-2.72,4.68a.82.82,0,0,1-.32.32,1,1,0,0,1-.44.1h-.27a.82.82,0,0,1-.42-.11.5.5,0,0,1-.24-.31l-1.6-4.69c0,.14,0,.28,0,.41a1.94,1.94,0,0,1,0,.36L79,140H77.17l1.12-9.06h1.77a.48.48,0,0,1,.18,0,.3.3,0,0,1,.13.09.5.5,0,0,1,.1.18L82.06,136C82.15,136.26,82.22,136.53,82.29,136.8Z"/><path class="cls-2" d="M93.45,136.93l-.38,3h-2l1.11-9.07h3a4.39,4.39,0,0,1,1.39.2,2.53,2.53,0,0,1,.94.54,2.09,2.09,0,0,1,.55.82,3,3,0,0,1,.17,1,4.06,4.06,0,0,1-.22,1.37,3,3,0,0,1-.7,1.09,3.1,3.1,0,0,1-1.18.72,4.79,4.79,0,0,1-1.69.27Zm.56-4.5-.37,3h1a1.77,1.77,0,0,0,.73-.13,1.22,1.22,0,0,0,.48-.36,1.4,1.4,0,0,0,.26-.55,2.71,2.71,0,0,0,.08-.71,1.59,1.59,0,0,0-.07-.5,1.11,1.11,0,0,0-.22-.38,1,1,0,0,0-.38-.25,1.45,1.45,0,0,0-.54-.09Z"/><path class="cls-2" d="M108.19,140h-1.57a.7.7,0,0,1-.42-.12.49.49,0,0,1-.18-.32l-.28-1.63h-3.08l-.68,1.63a.68.68,0,0,1-.26.31.79.79,0,0,1-.45.13H99.68l4.33-9.07h2.08Zm-5-3.45h2.28l-.44-2.59-.12-.66c0-.22-.08-.42-.11-.6l-.13.33c-.06.13-.11.25-.16.38l-.15.33c0,.1-.08.18-.1.23Z"/><path class="cls-2" d="M114.23,130.92l.16.05a.34.34,0,0,1,.12.09,1.25,1.25,0,0,1,.12.17l3.18,5.6c0-.15,0-.29,0-.42s0-.26,0-.37l.61-5.13h1.79L119.17,140h-1.06a.88.88,0,0,1-.39-.07.58.58,0,0,1-.27-.27l-3.17-5.59c0,.12,0,.23,0,.34l0,.3-.62,5.29h-1.8l1.12-9.07h1.3Z"/><path class="cls-2" d="M128.28,136.51l-.43,3.47h-2l.43-3.45-2.34-5.62h1.81a.6.6,0,0,1,.4.13.68.68,0,0,1,.22.32l.87,2.74c.06.18.11.36.16.53a5,5,0,0,1,.12.49l.26-.49.31-.53,1.54-2.74a.88.88,0,0,1,.27-.31.72.72,0,0,1,.44-.14H132Z"/><polygon class="cls-2" points="139.19 121.32 110.94 70.87 93.26 102.45 103.82 121.32 139.19 121.32"/><polygon class="cls-2" points="100.11 121.32 91.41 105.77 82.7 121.32 100.11 121.32"/><polygon class="cls-2" points="90.51 49.92 50.81 121.32 78.59 121.32 104.4 74.73 90.51 49.92"/></g></g></svg>