<svg xmlns="http://www.w3.org/2000/svg" viewBox="0 0 190 190"><defs><style>.cls-1{fill:#f1f1f1;opacity:0.01;}.cls-2{fill:#fff;}</style></defs><title>comp1</title><g id="Layer_2" data-name="Layer 2"><g id="Layer_1-2" data-name="Layer 1"><rect class="cls-1" width="190" height="190"/><path class="cls-2" d="M67.35,137a.21.21,0,0,1,.16.07l.4.43a3.15,3.15,0,0,1-1.13.85,3.87,3.87,0,0,1-1.6.3,3.92,3.92,0,0,1-1.49-.28,3.22,3.22,0,0,1-1.14-.8,3.59,3.59,0,0,1-.73-1.23,4.62,4.62,0,0,1-.26-1.57,4.21,4.21,0,0,1,.28-1.57,3.4,3.4,0,0,1,.78-1.23,3.56,3.56,0,0,1,1.2-.8,4.11,4.11,0,0,1,1.55-.28,3.76,3.76,0,0,1,1.45.26,3.67,3.67,0,0,1,1.07.7l-.33.47a.24.24,0,0,1-.08.09.29.29,0,0,1-.14,0,.3.3,0,0,1-.15-.05l-.18-.13-.25-.16a2.75,2.75,0,0,0-.34-.16,2.44,2.44,0,0,0-.45-.12,3.64,3.64,0,0,0-.6,0,2.9,2.9,0,0,0-1.12.21,2.73,2.73,0,0,0-.87.59,2.9,2.9,0,0,0-.57,1,3.71,3.71,0,0,0-.2,1.24,3.85,3.85,0,0,0,.2,1.27,2.83,2.83,0,0,0,.56.94,2.31,2.31,0,0,0,.83.58,2.57,2.57,0,0,0,1,.2,3.74,3.74,0,0,0,.61,0,1.93,1.93,0,0,0,.5-.12,2.86,2.86,0,0,0,.43-.21,3.6,3.6,0,0,0,.4-.31A.24.24,0,0,1,67.35,137Z"/><path class="cls-2" d="M79,134.79a4.42,4.42,0,0,1-.27,1.57,3.55,3.55,0,0,1-.76,1.22,3.38,3.38,0,0,1-1.19.8,4.29,4.29,0,0,1-3,0,3.34,3.34,0,0,1-1.18-.8,3.55,3.55,0,0,1-.76-1.22,4.42,4.42,0,0,1-.27-1.57,4.33,4.33,0,0,1,.27-1.56,3.49,3.49,0,0,1,1.94-2,4.29,4.29,0,0,1,3,0,3.54,3.54,0,0,1,1.19.81,3.5,3.5,0,0,1,.76,1.23A4.33,4.33,0,0,1,79,134.79Zm-1,0a4,4,0,0,0-.19-1.25,2.7,2.7,0,0,0-.54-.94,2.29,2.29,0,0,0-.85-.59,2.85,2.85,0,0,0-1.11-.21,2.82,2.82,0,0,0-1.11.21,2.21,2.21,0,0,0-.85.59,2.57,2.57,0,0,0-.55.94,4,4,0,0,0-.19,1.25,4,4,0,0,0,.19,1.25,2.57,2.57,0,0,0,.55.94,2.32,2.32,0,0,0,.85.59,2.82,2.82,0,0,0,1.11.2,2.85,2.85,0,0,0,1.11-.2,2.41,2.41,0,0,0,.85-.59,2.7,2.7,0,0,0,.54-.94A4,4,0,0,0,77.91,134.79Z"/><path class="cls-2" d="M86.88,136.11l.1.28.12-.28c0-.09.08-.18.13-.27l2.57-4.67a.29.29,0,0,1,.14-.15.58.58,0,0,1,.21,0h.76v7.59H90v-5.81c0-.09,0-.17,0-.26l-2.6,4.74a.41.41,0,0,1-.37.24h-.15a.41.41,0,0,1-.37-.24l-2.66-4.76a2.45,2.45,0,0,1,0,.27,2.18,2.18,0,0,1,0,.25v5.57H83V131h.76a.58.58,0,0,1,.21,0,.29.29,0,0,1,.14.15l2.63,4.67A2.24,2.24,0,0,1,86.88,136.11Z"/><path class="cls-2" d="M96.54,135.75v2.83h-1V131h2.24a4.32,4.32,0,0,1,1.26.17,2.46,2.46,0,0,1,.88.47,2,2,0,0,1,.52.75,2.7,2.7,0,0,1,.17,1,2.49,2.49,0,0,1-.18,1,2.09,2.09,0,0,1-.55.76,2.5,2.5,0,0,1-.88.5,3.82,3.82,0,0,1-1.22.18Zm0-.82h1.21a2.28,2.28,0,0,0,.78-.12,1.47,1.47,0,0,0,.56-.32,1.34,1.34,0,0,0,.35-.5,1.69,1.69,0,0,0,.12-.64,1.45,1.45,0,0,0-.45-1.14,2,2,0,0,0-1.36-.41H96.54Z"/><path class="cls-2" d="M110,138.58h-.79a.36.36,0,0,1-.22-.06.46.46,0,0,1-.13-.18l-.71-1.83h-3.41l-.71,1.83a.38.38,0,0,1-.12.17.35.35,0,0,1-.23.07h-.79l3-7.59H107Zm-5-2.81h2.83l-1.19-3.09a6.21,6.21,0,0,1-.23-.72c0,.15-.07.28-.11.4s-.07.23-.11.32Z"/><path class="cls-2" d="M114.38,131a.48.48,0,0,1,.16.14l4.39,5.72a2.45,2.45,0,0,1,0-.27c0-.08,0-.17,0-.25V131h.91v7.59h-.52a.46.46,0,0,1-.21,0,.5.5,0,0,1-.16-.14l-4.39-5.72c0,.09,0,.18,0,.26v5.64h-.9V131h.53A.46.46,0,0,1,114.38,131Z"/><path class="cls-2" d="M127.23,135.57v3h-1v-3L123.43,131h.9a.38.38,0,0,1,.22.07.55.55,0,0,1,.13.17l1.74,3c.07.13.13.24.18.35s.09.22.13.33c0-.11.08-.22.13-.33a2.23,2.23,0,0,1,.17-.35l1.73-3a.91.91,0,0,1,.13-.16.33.33,0,0,1,.22-.08H130Z"/><path class="cls-2" d="M86.38,118.26c.44,0,.88.1,1.33.13a37.74,37.74,0,0,0,22.34-35.27l-7.47-7.47A43.4,43.4,0,0,1,86.38,118.26Z"/><path class="cls-2" d="M83.71,117.91l.21,0A42,42,0,0,0,100.23,73.8L89.59,63.16A51.48,51.48,0,0,1,83.71,117.91Z"/><path class="cls-2" d="M119.8,91.89a38.82,38.82,0,0,1-12.52,21,39.6,39.6,0,0,1-6,4.28,35.06,35.06,0,0,0,22.79-20.94Z"/><path class="cls-2" d="M118.11,90.69,112,84.55a39.19,39.19,0,0,1-20.8,34h0a35.06,35.06,0,0,0,4.12-.25A37.83,37.83,0,0,0,118.11,90.69Z"/><path class="cls-2" d="M84.62,58.67l-7.35-7.34A34.89,34.89,0,0,0,55,83.77h0a34.9,34.9,0,0,0,26.43,33.74A49.83,49.83,0,0,0,84.62,58.67Z"/><path class="cls-2" d="M135,89.56a34.86,34.86,0,0,0-34.76-34.75h0a34.54,34.54,0,0,0-12.44,2.31L132.72,102A34.29,34.29,0,0,0,135,89.56Z"/></g></g></svg>