<svg xmlns="http://www.w3.org/2000/svg" viewBox="0 0 190 190"><defs><style>.cls-1{fill:#f1f1f1;opacity:0.01;}.cls-2{fill:#fff;}</style></defs><title>hurb</title><g id="Layer_2" data-name="Layer 2"><g id="Layer_1-2" data-name="Layer 1"><rect class="cls-1" width="190" height="190"/><path class="cls-2" d="M45.06,118c-17.7,0-25.75-12.28-25-30.56,0-1.35,1.24-1.78,3.43-1.78s3.73.28,3.66,1.79c-.44,14.56,4.1,23.84,17.92,23.84S63.56,101.84,63,87.49C62.9,86,64.59,85.7,66.63,85.7c2.2,0,3.44.43,3.44,1.78C70.8,106,62.61,118,45.06,118"/><path class="cls-2" d="M33.91,84.1,34,94.7c0,1.52,1.56,2,3.35,1.88,2.3-.07,3.71-.58,3.57-2.1-.25-2.47-.46-4.93-.65-7.4,1.6-.06,3.21-.08,4.81-.08,2,0,3.4.11,4.72.19q-.27,3.65-.63,7.29c-.15,1.52,1.26,2,3.56,2.1,1.79.07,3.35-.36,3.35-1.88l.07-10.6c.23-4.28.6-6.46,1-9.79.15-1.46-1-2.18-3.42-2.33-2-.14-3.64.29-3.64,1.82q.12,4,0,8a97.5,97.5,0,0,1-10.12,0c-.1-2.65-.11-5.31,0-8,0-1.53-1.64-2-3.64-1.82-2.38.15-3.57.87-3.42,2.33.44,3.33.81,5.51,1,9.79m46.18,25.44h6.68V96.2a6.18,6.18,0,0,1,1.58-1,4.66,4.66,0,0,1,2.08-.44,2.84,2.84,0,0,1,2,.67,3.27,3.27,0,0,1,.74,2.47v11.68h6.69V96a7,7,0,0,0-1.69-5,6.11,6.11,0,0,0-4.69-1.81,7.56,7.56,0,0,0-3.69.94,11.39,11.39,0,0,0-3,2.42l0-11H80.09v28Zm38.63-6.2a5.1,5.1,0,0,1-1.44.93,4.69,4.69,0,0,1-1.91.38,2.72,2.72,0,0,1-2-.7,3.34,3.34,0,0,1-.73-2.48V89.79H106v13.59a7.12,7.12,0,0,0,1.65,5,6,6,0,0,0,4.62,1.81,7.53,7.53,0,0,0,3.66-.92,11.17,11.17,0,0,0,2.83-2.14v2.42h6.69V89.79h-6.69v13.55Zm50.63-8.18a10.11,10.11,0,0,0-1.76-3.23,7.78,7.78,0,0,0-2.7-2.06,8.28,8.28,0,0,0-3.43-.72,6.19,6.19,0,0,0-3.32.85,11.75,11.75,0,0,0-2.33,1.83l0-10.3h-6.68v28.65l6.25-.85a16,16,0,0,0,2.27.57,12.26,12.26,0,0,0,2.26.24,10.09,10.09,0,0,0,3.86-.75,9.7,9.7,0,0,0,3.22-2.14,10.15,10.15,0,0,0,2.17-3.38,11.63,11.63,0,0,0,.8-4.44,13.2,13.2,0,0,0-.65-4.27m-7.19,8.58a3.86,3.86,0,0,1-3.28,1.51,5.44,5.44,0,0,1-3-.81V95.73a7.06,7.06,0,0,1,1.45-1,4.12,4.12,0,0,1,1.88-.38,3.59,3.59,0,0,1,3.09,1.42,6.57,6.57,0,0,1,1,4,6.35,6.35,0,0,1-1.16,4m-18-13.89a6.15,6.15,0,0,0-1.81-.27,5,5,0,0,0-4.5,3V89.75H131.6v19.79h6.23V98.27c1.37-3.25,5.47-2.75,6.31-2.6Z"/></g></g></svg>