<svg xmlns="http://www.w3.org/2000/svg" viewBox="0 0 190 190"><defs><style>.cls-1{fill:#f1f1f1;opacity:0.01;}.cls-2{fill:#fff;}</style></defs><title>mopub</title><g id="Layer_2" data-name="Layer 2"><g id="Layer_1-2" data-name="Layer 1"><rect class="cls-1" width="190" height="190"/><path class="cls-2" d="M55,106.39h-5.8V93.09A4.89,4.89,0,0,0,49,91.82a5.63,5.63,0,0,0-.57-1.42,3.29,3.29,0,0,0-1.27-1.13,5,5,0,0,0-2.26-.43A5,5,0,0,0,41.65,90a4.15,4.15,0,0,0-1.27,3.11v13.3h-5.8V93.09a4.58,4.58,0,0,0-.15-1.27,6,6,0,0,0-.56-1.42,3.39,3.39,0,0,0-1.28-1.13,5,5,0,0,0-2.26-.43A5,5,0,0,0,27.08,90a4.16,4.16,0,0,0-1.28,3.11v13.3H20V93.23a11.49,11.49,0,0,1,.71-4,9.14,9.14,0,0,1,2.12-3.4,8.62,8.62,0,0,1,3.25-2.12A10.28,10.28,0,0,1,30.33,83a10.47,10.47,0,0,1,4.25.85,8.87,8.87,0,0,1,3.11,2.41,8.87,8.87,0,0,1,3.11-2.41A9.81,9.81,0,0,1,44.91,83a13.45,13.45,0,0,1,4.24.71,10.08,10.08,0,0,1,3.26,2.12,8.55,8.55,0,0,1,2,3.26,12.53,12.53,0,0,1,.7,4.1v13.16ZM68.11,83a12.36,12.36,0,0,1,4.53.85,10.8,10.8,0,0,1,3.68,2.55,12.19,12.19,0,0,1,3.26,8.63,12.56,12.56,0,0,1-.85,4.67,13.43,13.43,0,0,1-2.41,3.82A13.43,13.43,0,0,1,72.5,106a11.87,11.87,0,0,1-4.53.85,12.44,12.44,0,0,1-4.53-.85,11,11,0,0,1-3.68-2.55,10.27,10.27,0,0,1-2.4-3.82,12.4,12.4,0,0,1-.85-4.67,13.65,13.65,0,0,1,.85-4.81,13.18,13.18,0,0,1,2.4-3.82,9.68,9.68,0,0,1,3.68-2.55A17.19,17.19,0,0,1,68.11,83m0,18.54a5.26,5.26,0,0,0,2.13-.42,5.56,5.56,0,0,0,1.84-1.28,5.3,5.3,0,0,0,1.27-2.12,8.82,8.82,0,0,0,0-5.38,5.37,5.37,0,0,0-1.27-2.12,9.5,9.5,0,0,0-1.84-1.42,5.77,5.77,0,0,0-2.13-.42,6.49,6.49,0,0,0-2.26.42A5.92,5.92,0,0,0,64,90.26a5,5,0,0,0-1.13,2.12,8.63,8.63,0,0,0,0,5.38A9.74,9.74,0,0,0,64,99.88a5.46,5.46,0,0,0,1.84,1.28,10.81,10.81,0,0,0,2.26.42m21.37-.85h3.4a7.22,7.22,0,0,0,2.4-.42A4.31,4.31,0,0,0,97.12,99a5.37,5.37,0,0,0,1.28-1.84,6.61,6.61,0,0,0,.42-2.4,6.7,6.7,0,0,0-.42-2.41,6,6,0,0,0-1.28-2,5.2,5.2,0,0,0-1.84-1.27A5.69,5.69,0,0,0,93,88.7a4.13,4.13,0,0,0-2.27.57,6.86,6.86,0,0,0-3.11,3.4,6.61,6.61,0,0,0-.42,2.4v21.51h-5.8V95.07a12.6,12.6,0,0,1,.84-4.67,13.57,13.57,0,0,1,2.41-3.82A9.61,9.61,0,0,1,88.35,84,12.6,12.6,0,0,1,93,83a10.36,10.36,0,0,1,4.67,1,11.2,11.2,0,0,1,6.08,6.37,12.43,12.43,0,0,1-2.26,12.74,10.32,10.32,0,0,1-3.54,2.4,11.44,11.44,0,0,1-4.39.85h-4.1Zm36.65,0A8.11,8.11,0,0,1,124,104a8.82,8.82,0,0,1-3.26,2.12,10.37,10.37,0,0,1-4.24.71,13.51,13.51,0,0,1-4.25-.71A10,10,0,0,1,109,104a8.39,8.39,0,0,1-2-3.26,12.31,12.31,0,0,1-.71-4.1v-13h5.8v13.3a4.89,4.89,0,0,0,.14,1.27,6.49,6.49,0,0,0,.57,1.42,3.36,3.36,0,0,0,1.27,1.13,5,5,0,0,0,2.27.43,4,4,0,0,0,3.11-1.28,4.15,4.15,0,0,0,1.27-3.11V83.61h5.81V96.77a6.31,6.31,0,0,1-.43,4m15.43-17.12a11.43,11.43,0,0,1,4.38.85,10.32,10.32,0,0,1,3.54,2.4,10.88,10.88,0,0,1,2.27,3.68,11.86,11.86,0,0,1,.84,4.53,12.39,12.39,0,0,1-.84,4.53,13.57,13.57,0,0,1-2.41,3.82,9.61,9.61,0,0,1-3.68,2.55,12.6,12.6,0,0,1-4.67,1,10.36,10.36,0,0,1-4.67-1,11.54,11.54,0,0,1-3.68-2.55,13.32,13.32,0,0,1-2.4-3.82,12.4,12.4,0,0,1-.85-4.67V73.42h5.8V94.93a8.11,8.11,0,0,0,.42,2.55,6.12,6.12,0,0,0,1.28,2,8.89,8.89,0,0,0,1.84,1.41,6.15,6.15,0,0,0,4.52,0,5.2,5.2,0,0,0,1.84-1.27,4.86,4.86,0,0,0,1.28-2,6.7,6.7,0,0,0,.42-2.41,5.91,5.91,0,0,0-.42-2.26,4.31,4.31,0,0,0-1.28-1.84,4.69,4.69,0,0,0-2-1.42,6.61,6.61,0,0,0-2.4-.42h-3.26V83.61ZM170,74.83a3.7,3.7,0,0,1-1.7.43,3.09,3.09,0,0,0,1.28-1.7,10.23,10.23,0,0,1-1.84.71,3.22,3.22,0,0,0-2.27-.85,3,3,0,0,0-3,3,1.3,1.3,0,0,0,.14.71A8.56,8.56,0,0,1,156.42,74a2.78,2.78,0,0,0-.43,1.55,3.48,3.48,0,0,0,1.27,2.55,2.73,2.73,0,0,1-1.41-.42,3,3,0,0,0,2.4,3c-.28,0-.56.14-.84.14h-.57a3.44,3.44,0,0,0,2.83,2.12A5.53,5.53,0,0,1,156,84.17h-.71a8.09,8.09,0,0,0,4.53,1.28A8.4,8.4,0,0,0,168.3,77v-.43a6.2,6.2,0,0,0,1.7-1.7"/></g></g></svg>