<svg xmlns="http://www.w3.org/2000/svg" viewBox="0 0 190 190"><defs><style>.cls-1{fill:#f1f1f1;opacity:0.01;}.cls-2{fill:#fff;}</style></defs><title>wildlife</title><g id="Layer_2" data-name="Layer 2"><g id="Layer_1-2" data-name="Layer 1"><rect class="cls-1" width="190" height="190"/><path class="cls-2" d="M169.89,95.76l-22-30.21a.1.1,0,0,1,0,0H20s0,0,0,0c.31.34.62.68.92,1L38.68,87.27Q43.74,93.14,48.77,99a.7.7,0,0,0,.57.27h9.38c-4.61,8.42-9.18,16.79-13.79,25.22H150.54a.62.62,0,0,0,.61-.33l18.77-27.93A.35.35,0,0,0,169.89,95.76ZM117.73,72.55c5.61,0,11.22,0,16.83,0a25.62,25.62,0,0,1,6.58.75A11.34,11.34,0,0,1,147,77a22.93,22.93,0,0,1,4.23,7.2,7.68,7.68,0,0,1,.49,3.16,4.22,4.22,0,0,1-1.87,3.21,8.15,8.15,0,0,1-3.53,1.35,25.14,25.14,0,0,1-4.25.26H128.15a.49.49,0,0,1-.51-.32q-2.31-4.35-4.63-8.69-2.73-5.15-5.47-10.27a3.47,3.47,0,0,1-.16-.33Zm-24.31,0h11.4a.51.51,0,0,1,.52.32c1.66,3.14,3.33,6.26,5,9.39.79,1.47,1.58,3,2.35,4.42a.48.48,0,0,0,.51.29h9.63a.47.47,0,0,1,.48.28c.81,1.56,1.64,3.11,2.47,4.67l.13.25h-22.1a.48.48,0,0,1-.48-.29q-2.31-4.38-4.64-8.75L93.83,74l-.78-1.47Zm-15.74,0H89.46a.47.47,0,0,1,.48.28q3.21,6.06,6.45,12.11l3.16,6,.67,1.26H88.1a.44.44,0,0,1-.45-.27c-1.76-3.33-3.53-6.64-5.3-10L78,73.75l-.63-1.18ZM51.5,92.16a.55.55,0,0,1-.47-.22l-6.67-7.73-6.49-7.5-3.43-4a2,2,0,0,1-.15-.2H47.58a.58.58,0,0,1,.54.26c2.11,2.85,4.24,5.69,6.35,8.54a.49.49,0,0,0,.19.15c-.77-3-1.55-5.93-2.34-8.93l.32,0h10a.54.54,0,0,1,.49.25q3.2,4.24,6.4,8.5a.33.33,0,0,0,.18.13l-2.26-8.88h8.12c.25,0,.33.07.37.32.39,2,.8,4.08,1.2,6.12l1.8,9.3.76,3.86h-12a.57.57,0,0,1-.49-.25c-1.41-1.71-2.83-3.4-4.25-5.11l-1.62-1.94a.35.35,0,0,0-.19-.12l1.49,7.4H51.5Zm27.64,25.3H56.74c.19-.41.38-.81.59-1.21L61,109.32q3-5.61,6-11.22c.08-.14.14-.27.36-.27H79.25l-7.67,14.39H81.87l-.53,1-2.2,4.11S79.14,117.43,79.14,117.46Zm14.38,0H81.08l2-3.84c.73-1.38,1.47-2.75,2.21-4.13q3-5.67,6-11.34a.52.52,0,0,1,.54-.32H104l-.79,1.51L100.7,104q-2.43,4.58-4.87,9.13Zm28-6h-9.26a.59.59,0,0,0-.62.35c-1,1.89-2,3.78-3,5.68H96.82c.22-.46.44-.92.67-1.36.73-1.39,1.47-2.76,2.21-4.14l6.14-11.51c.43-.8.85-1.6,1.27-2.41a.33.33,0,0,1,.34-.2h22.46c-.3.57-.58,1.11-.87,1.65-.66,1.23-1.33,2.46-2,3.7a.42.42,0,0,1-.45.26H116.47a.59.59,0,0,0-.62.35c-.42.82-.89,1.62-1.36,2.47h10c-.2.38-.36.71-.54,1-.67,1.28-1.36,2.55-2,3.84A.48.48,0,0,1,121.47,111.44ZM155.71,97.9c-.05.07-.11.13-.15.2-.79,1.49-1.58,3-2.36,4.46a.46.46,0,0,1-.47.28c-3.6,0-7.2,0-10.79,0-.62,0-1,.12-1.22.73a.93.93,0,0,0-.05.1c-.28.49-.55,1-.85,1.52h11.07c0,.1-.07.18-.11.24-.76,1.43-1.52,2.85-2.26,4.28a.48.48,0,0,1-.52.31H137.63a.47.47,0,0,0-.52.31c-.15.33-.35.64-.52,1l-.66,1.21h12.29c0,.05,0,.08,0,.1-.67,1.25-1.34,2.5-2,3.75-.2.38-.39.76-.58,1.15h-23.7l1-2q1.27-2.43,2.57-4.84,2.74-5.16,5.51-10.32c.39-.74.79-1.48,1.17-2.23a.38.38,0,0,1,.41-.23h23.07Z"/><path class="cls-2" d="M134,81.86c.91,1.7,1.82,3.39,2.72,5.09a.32.32,0,0,0,.34.21c.48,0,1,0,1.44,0a5.26,5.26,0,0,0,1.12-.2.83.83,0,0,0,.58-1.06,4.91,4.91,0,0,0-.4-1.07c-.86-1.64-1.72-3.29-2.61-4.92a4,4,0,0,0-2.79-2.23,25.86,25.86,0,0,0-2.73-.21c.09.19.12.27.16.34C132.52,79.15,133.24,80.51,134,81.86Z"/></g></g></svg>