<svg xmlns="http://www.w3.org/2000/svg" xmlns:xlink="http://www.w3.org/1999/xlink" viewBox="0 0 383.2 324.63"><defs><style>.cls-1{fill:none;}.cls-2{clip-path:url(#clip-path);}.cls-3{fill:url(#linear-gradient);}.cls-4{fill:url(#linear-gradient-2);}.cls-5{fill:#ff3c4b;}.cls-6{fill:#fff;}</style><clipPath id="clip-path" transform="translate(23.2)"><polygon class="cls-1" points="160 80.15 160 80.15 120 120.15 80 80.15 80 80.15 0 80.15 0 160.15 0 160.15 40 200.15 0 240.15 0 240.15 0 320.15 80 320.15 80 320.15 120 280.15 160 320.15 160 320.15 160 80.15"/></clipPath><linearGradient id="linear-gradient" x1="268.73" y1="171.85" x2="180.67" y2="303.94" gradientUnits="userSpaceOnUse"><stop offset="0.12" stop-color="#453dff"/><stop offset="1" stop-color="#1fe582"/></linearGradient><linearGradient id="linear-gradient-2" x1="422.13" y1="37.12" x2="284.84" y2="179.14" gradientUnits="userSpaceOnUse"><stop offset="0" stop-color="#ff3d4a"/><stop offset="1" stop-color="#453dff"/></linearGradient></defs><title>bg_header_mobile</title><g id="Layer_2" data-name="Layer 2"><g id="Layer_1-2" data-name="Layer 1"><g class="cls-2"><image width="5000" height="4000" transform="translate(0 67.35) scale(0.06 0.06)" xlink:href="C:%5CUsers%5CBruno%20Blanke%5CDesktop%5Cbg_header_3.jpg"/></g><polygon class="cls-3" points="303.2 240.15 223.2 240.15 183.2 200.15 143.2 240.15 143.2 240.15 143.2 320.15 223.2 320.15 223.2 320.15 303.2 240.15"/><polygon class="cls-4" points="223.2 160.15 383.2 0 383.2 80.15 383.2 160.15 343.2 200.15 303.2 160.15 223.2 160.15"/><polygon class="cls-5" points="383.2 240.15 383.2 320 303.2 320 263.2 280.15 303.2 240.15 303.2 160.15 383.2 240.15"/><polygon class="cls-5" points="223.05 80 143.2 80 143.2 160.15 143.2 160.15 223.2 240.15 223.2 160.15 263.2 120.15 223.05 80"/><polygon class="cls-6" points="246.29 193.65 246.29 196.5 244.49 198.3 238.62 198.3 236.93 196.62 238.54 195.01 239.75 196.22 243.33 196.22 243.93 195.62 243.93 194.52 243.49 194.08 238.85 193.79 237.21 192.16 237.21 189.38 239.01 187.59 244.51 187.59 246.13 189.21 244.53 190.82 243.37 189.67 240.18 189.67 239.58 190.26 239.58 191.29 240.02 191.73 244.65 192.01 246.29 193.65"/><polygon class="cls-6" points="257.18 196.5 255.38 198.3 250.29 198.3 248.18 196.19 248.18 189.7 250.29 187.59 255.27 187.59 257.07 189.38 255.46 190.99 254.17 189.7 251.41 189.7 250.54 190.56 250.54 195.32 251.41 196.19 254.28 196.19 255.57 194.9 257.18 196.5"/><path class="cls-6" d="M242.52,196.22H238.2l-.74,2.08H235l4.19-10.71h2.38l4.19,10.71h-2.54Zm-.76-2.11-1.4-3.92-1.4,3.92Z" transform="translate(23.2)"/><polygon class="cls-6" points="278.88 196.19 278.88 198.3 270.88 198.3 270.88 187.59 273.24 187.59 273.24 196.19 278.88 196.19"/><polygon class="cls-6" points="283.23 189.7 283.23 191.87 288.68 191.87 288.68 193.98 283.23 193.98 283.23 196.19 289.47 196.19 289.47 198.3 280.87 198.3 280.87 187.59 289.47 187.59 289.47 189.7 283.23 189.7"/><path class="cls-6" d="M240.86,204.11v6.49l-2.11,2.11h-6.56l-2.11-2.11v-6.49l2.11-2.11h6.56Zm-2.36,5.62V205l-.87-.87h-4.32l-.87.87v4.75l.87.87h4.32Z" transform="translate(23.2)"/><polygon class="cls-6" points="275.63 202 275.63 212.71 273.69 212.71 268.74 205.7 268.74 212.71 266.49 212.71 266.49 202 268.68 202 273.38 208.66 273.38 202 275.63 202"/><polygon class="cls-6" points="286.49 212.71 289.47 212.71 284.85 207.2 289.23 202 286.44 202 282.85 206.19 280.7 206.19 280.7 202 278.34 202 278.34 212.71 280.7 212.71 280.7 208.31 282.84 208.31 286.49 212.71"/><polygon class="cls-6" points="248.46 202 244.2 209.99 239.94 202 237.56 202 237.56 212.71 239.81 212.71 239.81 206.02 243.39 212.71 244.86 212.71 244.86 212.69 244.88 212.71 245.27 211.99 248.48 206.02 248.48 212.71 250.84 212.71 250.84 202 248.46 202"/></g></g></svg>