<svg xmlns="http://www.w3.org/2000/svg" viewBox="0 0 63.75 63.76"><defs><style>.cls-1{fill:#fff;}</style></defs><title>ico_3</title><g id="Layer_2" data-name="Layer 2"><g id="Layer_1-2" data-name="Layer 1"><g id="_002---Investment-Advisor" data-name="002---Investment-Advisor"><path id="Shape" class="cls-1" d="M43.49,27.63h8.57a3.19,3.19,0,0,0,3.19-3.19V19.07a9.56,9.56,0,1,0-2.12,0v5.37a1.07,1.07,0,0,1-1.07,1.07h-8.5c-.09-1.07-.4-1.64-1-1.92h-.1c1.66-4.06,1.74-9.66-2-12.56-4.42-3.42-11.76-1.8-13.18-1.46s-1.77,0-2.12-.41a2.13,2.13,0,0,0-3.64.93c-1.29,4.91-2.24,8.79-.34,13.45h-.09c-.56.28-.86.87-1,1.91H8.5a1.05,1.05,0,0,1-1.06-1.06V18.07a1.07,1.07,0,0,0-2.13,0v6.37A3.19,3.19,0,0,0,8.5,27.63H20.26a6.28,6.28,0,0,0,2.53,4,7.15,7.15,0,0,0,1.65,5.25v2a6.41,6.41,0,0,1-1,.65c-1.37.78-1.56.4-3.27,1.13V34a2.13,2.13,0,0,0-2.13-2.13H3.19A2.13,2.13,0,0,0,1.06,34V44.63a2.13,2.13,0,0,0,2.13,2.13H5.31v2.12H2.13A2.13,2.13,0,0,0,0,51v2.12a2.13,2.13,0,0,0,2.13,2.13v6.37a2.13,2.13,0,0,0,2.12,2.13H6.38A2.13,2.13,0,0,0,8.5,61.63V55.26h4.25v6.37a2.13,2.13,0,0,0,2.13,2.13h34A2.13,2.13,0,0,0,51,61.63V55.26h4.25v6.37a2.13,2.13,0,0,0,2.13,2.13H59.5a2.13,2.13,0,0,0,2.13-2.13V55.26a2.13,2.13,0,0,0,2.12-2.13V51a2.12,2.12,0,0,0-2.12-2.13H58.44V46.76h2.12a2.13,2.13,0,0,0,2.13-2.13V34a2.13,2.13,0,0,0-2.13-2.13H45.69A2.13,2.13,0,0,0,43.56,34v6.64a8.19,8.19,0,0,0-1.8-.57,6.28,6.28,0,0,1-2.45-1.22v-2A7.15,7.15,0,0,0,41,31.66,6.32,6.32,0,0,0,43.49,27.63ZM46.75,9.57A7.44,7.44,0,1,1,54.19,17,7.44,7.44,0,0,1,46.75,9.57Zm-23,1.06a4,4,0,0,0,4.17,1.06c3.5-.88,8.55-1.12,11.33,1.06s2.61,6.9,1.27,10.14a2.42,2.42,0,0,0-.13-.55c-.27-1.57-1.75-4.25-8.5-4.25s-8.2,2.63-8.5,4.25a2.53,2.53,0,0,1-.12.56c-1.65-4.14-.81-7.74.48-12.27ZM37.19,39.39v2a2.84,2.84,0,0,1-1.35,2.28c-.27-.46-.5-.61-1.42-1.43C35.78,41.78,36.41,40.53,37.19,39.39Zm-5.31,13.1,2.81,9.14H29.06Zm0-5.26-2.13-2.46,2.13-1.92L34,44.68Zm-4-3.5a3,3,0,0,1-1.34-2.29v-2c.79,1.15,1.42,2.39,2.78,2.89-1,.87-1.23,1-1.45,1.45ZM3.19,34H18.06v7.73c-1.59.88-3.18,1.56-4.25,2.89H3.19ZM7.44,46.76h5.44a8.38,8.38,0,0,0-.13,2.12H7.44ZM6.38,61.63H4.25V55.26H6.38Zm-4.25-8.5V51H12.75v2.12Zm12.75-5.31a3.19,3.19,0,0,1,1.38-2.63c.34-.24.64-.44.81-.54,3.25-1.72,3.93-2.27,5.32-2.52a7.19,7.19,0,0,0,2.05-.69,5.35,5.35,0,0,0,3.89,4.9l2.36,2.82L26.84,61.63h-12ZM59.5,61.63H57.38V55.26H59.5Zm2.13-8.5H51V51H61.63Zm-5.32-4.25H51a7.94,7.94,0,0,0-.13-2.12h5.44Zm-6.37-4.25a6,6,0,0,0-1.73-1.51l1.12-2.25,2.19,1.46A1.07,1.07,0,0,0,53,42l1.6-2.4,1.29.63A1,1,0,0,0,57.17,40l3.39-4.12v8.75ZM59.4,34l-3.32,4-1.37-.68a1.06,1.06,0,0,0-1.36.36L51.81,40,49.5,38.44a1,1,0,0,0-.85-.14,1.05,1.05,0,0,0-.68.54l-1.66,3.24-.62-.34V34Zm-18,8.17c1.38.24,2.26.89,4.9,2.29,1.54.8,2.61,1.7,2.61,3.35V61.63h-12L33.07,49.11l2.4-2.85a5.31,5.31,0,0,0,3.84-4.82,7,7,0,0,0,2.06.74ZM41.23,28a4.47,4.47,0,0,1-1.85,2.13c-1.49.77.74,3.18-2.18,5.94a13.63,13.63,0,0,0-2.13,2.7c-1.27,1.92-1.07,1.61-4.41,1.61-1.62,0-1.6-1.86-4.11-4.3-3-2.9-.68-5.17-2.12-5.94A4.47,4.47,0,0,1,22.58,28a6.21,6.21,0,0,1-.27-2.27,2.43,2.43,0,0,1,.25.2,1.05,1.05,0,0,0,1.47,0,4.07,4.07,0,0,0,.51-.74,6.74,6.74,0,0,0,1-2.56c.29-1.57,2.61-2.46,6.38-2.46s6.11.89,6.37,2.46a7.19,7.19,0,0,0,.91,2.53c.15.25.32.49.49.73a1.08,1.08,0,0,0,1.49,0l.26-.2a6.15,6.15,0,0,1-.17,2.3Z"/><path id="Shape-2" data-name="Shape" class="cls-1" d="M38.25,55.26a1.07,1.07,0,0,0,1.06,1.06h6.38a1.07,1.07,0,0,0,0-2.13H39.31A1.07,1.07,0,0,0,38.25,55.26Z"/><path id="Shape-3" data-name="Shape" class="cls-1" d="M24.44,54.19H18.06a1.07,1.07,0,0,0,0,2.13h6.38a1.07,1.07,0,0,0,0-2.13Z"/><circle id="Oval" class="cls-1" cx="54.19" cy="13.82" r="1.06"/><path id="Shape-4" data-name="Shape" class="cls-1" d="M54.19,10.63a1.06,1.06,0,0,0,1.06-1.06V5.32a1.06,1.06,0,1,0-2.12,0V9.57A1.06,1.06,0,0,0,54.19,10.63Z"/><path id="Shape-5" data-name="Shape" class="cls-1" d="M2.43,10.63a1.07,1.07,0,0,0,0,1.51A4.81,4.81,0,0,0,5.31,13.2v.62a1.07,1.07,0,0,0,2.13,0V13.2a3.41,3.41,0,0,0,3.19-3.37C10.63,6.9,8,6.58,6.5,6.38c-1.91-.23-2.25-.44-2.25-1.33,0-1.53,3.54-1.86,4.39-.41A1.08,1.08,0,0,0,10.1,5a1.09,1.09,0,0,0,.4-1.47A4.45,4.45,0,0,0,7.44,1.69V1.07a1.07,1.07,0,1,0-2.13,0v.65A3.53,3.53,0,0,0,2.13,5.05C2.13,8,4.71,8.3,6.25,8.5c1.91.24,2.25.44,2.25,1.33,0,1.16-1.33,1.33-2.12,1.33a4.41,4.41,0,0,1-2.44-.53,1.07,1.07,0,0,0-1.51,0Z"/><path id="Shape-6" data-name="Shape" class="cls-1" d="M6.38,38.26h8.5a1.07,1.07,0,0,0,0-2.13H6.38a1.07,1.07,0,1,0,0,2.13Z"/><path id="Shape-7" data-name="Shape" class="cls-1" d="M10.63,42.51a1.07,1.07,0,0,0,0-2.13H6.38a1.07,1.07,0,1,0,0,2.13Z"/></g></g></g></svg>