<svg xmlns="http://www.w3.org/2000/svg" viewBox="0 0 63.75 64.82"><defs><style>.cls-1{fill:#fff;}</style></defs><title>ico_2</title><g id="Layer_2" data-name="Layer 2"><g id="Layer_1-2" data-name="Layer 1"><g id="_027---Lego" data-name="027---Lego"><path id="Shape" class="cls-1" d="M16.21,11.88c0,1.85,2.32,3.24,5.4,3.24S27,13.73,27,11.88s-2.33-3.24-5.41-3.24S16.21,10,16.21,11.88Zm5.4-1.08c2.1,0,3.24.81,3.24,1.08S23.71,13,21.61,13s-3.24-.81-3.24-1.08S19.52,10.8,21.61,10.8Z"/><path id="Shape-2" data-name="Shape" class="cls-1" d="M36.74,38.89c0,1.85,2.32,3.24,5.4,3.24s5.4-1.39,5.4-3.24-2.32-3.24-5.4-3.24S36.74,37,36.74,38.89Zm8.64,0c0,.27-1.15,1.08-3.24,1.08s-3.24-.81-3.24-1.08,1.15-1.08,3.24-1.08S45.38,38.62,45.38,38.89Z"/><path id="Shape-3" data-name="Shape" class="cls-1" d="M63.74,37.81a.93.93,0,0,0,0-.23,1.07,1.07,0,0,0-.62-1.29l-6-2.53c-.57-1.43-2.62-2.43-5.22-2.43-.77,0,.29.36-4.41-1.62-.34-1.36-2-2.39-4.23-2.64,0-17.72,0-16.92-.09-17.22a1.15,1.15,0,0,0-.56-.57l-6-2.53C36,5.32,33.94,4.32,31.34,4.32c-.78,0,.29.36-4.41-1.62C26-.9,17.23-.9,16.3,2.7c-4.69,2-3.63,1.62-4.41,1.62-2.6,0-4.64,1-5.22,2.43l-6,2.53a1,1,0,0,0-.52.51C0,10.16,0,7.65,0,46.45a1.09,1.09,0,0,0,.66,1C44,65.68,41.66,64.81,42.14,64.81s-1,.51,20.94-8.72a.9.9,0,0,0,.47-.41c.27-.41.19.89.19-17.87ZM43.22,46.64l18.36-7.73V54.37L43.22,62.11ZM55.1,34.57c0,.27-1.15,1.08-3.24,1.08s-3.24-.81-3.24-1.08,1.15-1.08,3.24-1.08S55.1,34.3,55.1,34.57Zm-3.24,3.24A6.19,6.19,0,0,0,56.76,36l3.12,1.32L42.14,44.75,24.4,37.28,27.52,36a6.19,6.19,0,0,0,4.9,1.85c5.27,0,6.93-3.68,3.88-5.54l1.09-.46c2,2.24,7.51,2.24,9.49,0l1.1.46C44.9,34.15,46.65,37.81,51.86,37.81Zm-15-8.1c-4.68,2-3.63,1.62-4.4,1.62-2.61,0-4.65,1-5.23,2.42l-4.5,1.9v-16L41.06,11.9V27.07c-2.24.25-3.89,1.28-4.24,2.64Zm-4.4,3.78c2.09,0,3.24.81,3.24,1.08s-1.15,1.08-3.24,1.08-3.24-.81-3.24-1.08,1.14-1.08,3.24-1.08ZM2.17,11.9l18.36,7.73v16L2.17,27.92ZM45.38,30.25c0,.27-1.15,1.08-3.24,1.08s-3.24-.81-3.24-1.08,1.15-1.08,3.24-1.08S45.38,30,45.38,30.25ZM34.58,7.56c0,.27-1.15,1.08-3.24,1.08S28.1,7.83,28.1,7.56s1.14-1.08,3.24-1.08S34.58,7.29,34.58,7.56Zm-13-5.4c2.1,0,3.24.81,3.24,1.08s-1.14,1.08-3.24,1.08-3.24-.81-3.24-1.08S19.52,2.16,21.61,2.16ZM16.87,4.8c2,2.25,7.51,2.24,9.49,0l1.1.47a2.78,2.78,0,0,0-1.53,2.29c0,3.62,8,4.38,10.3,1.4l3.13,1.31L21.61,17.74,3.87,10.27,7,9c2.25,3,10.29,2.23,10.29-1.4a2.75,2.75,0,0,0-1.52-2.29Zm-5,1.68c2.09,0,3.24.81,3.24,1.08S14,8.64,11.89,8.64,8.65,7.83,8.65,7.56,9.8,6.48,11.89,6.48ZM2.17,30.26l19,8,19.87,8.37V62.11L2.17,45.73Z"/><path id="Shape-4" data-name="Shape" class="cls-1" d="M38.25,56.26,14.48,46a1.07,1.07,0,0,0-1.09.1,1.1,1.1,0,0,0-.43,1,1.08,1.08,0,0,0,.67.87L37.39,58.24a1.06,1.06,0,0,0,1.1-.1,1.08,1.08,0,0,0-.24-1.88Z"/><path id="Shape-5" data-name="Shape" class="cls-1" d="M9.08,43.62l-3.24-1.4a1.08,1.08,0,0,0-.86,2l3.24,1.4a1.06,1.06,0,0,0,1.07-.12,1.07,1.07,0,0,0-.21-1.86Z"/></g></g></g></svg>