<svg xmlns="http://www.w3.org/2000/svg" viewBox="0 0 64.12 64.12"><defs><style>.cls-1{fill:#fff;}</style></defs><title>ico_1</title><g id="Layer_2" data-name="Layer 2"><g id="Layer_1-2" data-name="Layer 1"><path class="cls-1" d="M64.12,33.88a10.68,10.68,0,0,0-5.06-9.07,10.76,10.76,0,0,0,1-4.61c0-4.62-5.7-8.36-9.43-10.31A10.78,10.78,0,0,0,32,3.5,10.59,10.59,0,0,0,24.08,0,10.74,10.74,0,0,0,15,5.14,10.56,10.56,0,0,0,13.44,10v0l-.83.44a30.27,30.27,0,0,0-3.37,2.1C5.77,15,4,17.62,4,20.2a10.62,10.62,0,0,0,1,4.61,10.66,10.66,0,0,0-.34,17.92A10.87,10.87,0,0,0,4,46.55,10.64,10.64,0,0,0,9.36,55.8c1.4,4.85,6.94,8.32,13.46,8.32a16.5,16.5,0,0,0,9.23-2.74,16.12,16.12,0,0,0,9.24,2.74c6.53,0,12.07-3.47,13.46-8.32a10.62,10.62,0,0,0,5.35-9.25,10.86,10.86,0,0,0-.7-3.82A10.64,10.64,0,0,0,64.12,33.88ZM22.82,61.61c-5.51,0-10.31-3-11.15-6.92a1.27,1.27,0,0,0-.66-.85A8.1,8.1,0,0,1,6.88,49a7.34,7.34,0,0,0,3.35.79h0A7.64,7.64,0,0,0,15,48.05a1.25,1.25,0,0,0-1.59-1.94,5,5,0,0,1-6.84-.46,8,8,0,0,1,.86-2.85,1.24,1.24,0,0,0-.53-1.68,8.16,8.16,0,0,1,.39-14.67A1.25,1.25,0,0,0,8,25.66a1.21,1.21,0,0,0-.15-1,8.16,8.16,0,0,1-1.3-4.43c0-3,4.26-5.93,7.1-7.48a10.71,10.71,0,0,0,4.17,6.55A1.29,1.29,0,0,0,19.54,19a1.25,1.25,0,0,0-.27-1.75A8.16,8.16,0,0,1,24.08,2.5,8.11,8.11,0,0,1,30.73,6v.12c0,.83,0,2.66,0,6.8h-7a1.24,1.24,0,0,0-1.16.77A1.26,1.26,0,0,0,22.87,15a5,5,0,0,1,0,7.1,5.14,5.14,0,0,1-7.1,0A1.25,1.25,0,1,0,14,23.88c.2.19.4.37.61.54l-3.17,3.26a4.4,4.4,0,0,0,0,6.2,4.47,4.47,0,0,0,6.21,0,1.25,1.25,0,0,0-1.77-1.77,2,2,0,0,1-2.66,0,1.88,1.88,0,0,1,0-2.67h0l3.65-3.75s1.31.32,1.47.34a7.53,7.53,0,0,0,7.79-10.65h4.59c0,3.21,0,7.44,0,13.05H27.68v-.31a1.26,1.26,0,1,0-2.51,0v3.13a1.26,1.26,0,0,0,2.51,0v-.31h3.06c0,.59,0,6.16,0,8.28H27.25A4.39,4.39,0,0,0,20,37.61a1.25,1.25,0,1,0,1.77,1.77c1.66-1.66,4.39.94,2.66,2.67a1.25,1.25,0,0,0,0,1.77,1.28,1.28,0,0,0,1.77,0,4.37,4.37,0,0,0,1.17-2.1h3.36c0,2.88,0,5.61,0,8H21a1.25,1.25,0,0,0-.88.36,4.38,4.38,0,0,0,0,6.21,4.48,4.48,0,0,0,6.2,0,1.25,1.25,0,0,0-1.77-1.77,1.94,1.94,0,0,1-2.66,0,1.88,1.88,0,0,1-.29-2.3h9.23c0,2.14,0,6.55,0,6.94A13.87,13.87,0,0,1,22.82,61.61Zm34.4-20.49a1.24,1.24,0,0,0-.53,1.68,8.17,8.17,0,0,1-3.58,11,1.24,1.24,0,0,0-.66.86c-.84,3.94-5.64,6.91-11.16,6.91a13.73,13.73,0,0,1-8-2.41V52.26h4.53a4.37,4.37,0,1,0,.14-2.5H33.3l0-8H44.91a4.39,4.39,0,1,0,0-2.51H33.28V30.93H36a4.39,4.39,0,1,0,0-2.51H33.26V15.37H36.9a4.39,4.39,0,1,0,0-2.5H33.24V5.93a8.26,8.26,0,0,1,15,4.73,1.36,1.36,0,0,0,.87,1.22c5.35,2.7,8.54,5.82,8.54,8.32,0,3.12-2,6.79-5.46,6.9a1.26,1.26,0,0,0-.88.39,1.26,1.26,0,0,0,.92,2.11h0a8.19,8.19,0,0,0,5.52-2.67,8.16,8.16,0,0,1-.51,14.19Zm-17,10.14a1.89,1.89,0,1,1,1.89,1.88A1.89,1.89,0,0,1,40.21,51.26Zm7-10.79a1.88,1.88,0,1,1,1.88,1.88A1.89,1.89,0,0,1,47.24,40.47Zm-8.91-10.8a1.89,1.89,0,1,1,1.88,1.89A1.89,1.89,0,0,1,38.33,29.67Zm.88-15.6A1.89,1.89,0,1,1,41.09,16,1.89,1.89,0,0,1,39.21,14.07Z"/></g></g></svg>