<svg xmlns="http://www.w3.org/2000/svg" viewBox="0 0 120 120"><defs><style>.cls-1{opacity:0;}.cls-2{fill:#fff;}</style></defs><title>logo_mobile</title><g id="Layer_2" data-name="Layer 2"><g id="Layer_1-2" data-name="Layer 1"><rect class="cls-1" width="120" height="120"/><polygon class="cls-2" points="41.73 52.33 41.73 56.01 39.41 58.33 31.82 58.33 29.65 56.15 31.72 54.08 33.29 55.64 37.91 55.64 38.68 54.87 38.68 53.45 38.11 52.88 32.13 52.51 30.01 50.4 30.01 46.82 32.33 44.5 39.43 44.5 41.52 46.59 39.45 48.67 37.97 47.18 33.84 47.18 33.06 47.95 33.06 49.28 33.63 49.85 39.61 50.21 41.73 52.33"/><polygon class="cls-2" points="55.78 56.01 53.47 58.33 46.9 58.33 44.17 55.6 44.17 47.22 46.9 44.5 53.32 44.5 55.64 46.82 53.57 48.89 51.9 47.22 48.34 47.22 47.22 48.34 47.22 54.48 48.34 55.6 52.04 55.6 53.71 53.94 55.78 56.01"/><path class="cls-2" d="M66.81,55.64H61.24l-1,2.69H57.15L62.56,44.5h3.07L71,58.33H67.76Zm-1-2.72L64,47.85l-1.81,5.07Z"/><polygon class="cls-2" points="83.79 55.6 83.79 58.33 73.46 58.33 73.46 44.5 76.51 44.5 76.51 55.6 83.79 55.6"/><polygon class="cls-2" points="89.41 47.22 89.41 50.03 96.44 50.03 96.44 52.76 89.41 52.76 89.41 55.6 97.46 55.6 97.46 58.33 86.36 58.33 86.36 44.5 97.46 44.5 97.46 47.22 89.41 47.22"/><path class="cls-2" d="M64.67,65.82V74.2l-2.73,2.73H53.48L50.75,74.2V65.82l2.73-2.72h8.46Zm-3.05,7.26V66.94L60.5,65.82H54.92L53.8,66.94v6.14l1.12,1.12H60.5Z"/><polygon class="cls-2" points="79.6 63.1 79.6 76.93 77.09 76.93 70.71 67.88 70.71 76.93 67.8 76.93 67.8 63.1 70.63 63.1 76.69 71.7 76.69 63.1 79.6 63.1"/><polygon class="cls-2" points="93.62 76.93 97.46 76.93 91.5 69.81 97.16 63.1 93.56 63.1 88.92 68.52 86.15 68.52 86.15 63.1 83.1 63.1 83.1 76.93 86.15 76.93 86.15 71.24 88.9 71.24 93.62 76.93"/><polygon class="cls-2" points="44.53 63.1 39.03 73.42 33.53 63.1 30.46 63.1 30.46 76.93 33.37 76.93 33.37 68.28 37.98 76.93 39.88 76.93 39.88 76.91 39.91 76.93 40.41 76 44.55 68.28 44.55 76.93 47.6 76.93 47.6 63.1 44.53 63.1"/></g></g></svg>