<svg xmlns="http://www.w3.org/2000/svg" viewBox="0 0 189.66 189.66"><defs><style>.cls-1{fill:#ff3d4a;opacity:0;}.cls-2{fill:#fff;}</style></defs><title>Asset 21</title><g id="Layer_2" data-name="Layer 2"><g id="Layer_1-2" data-name="Layer 1"><rect class="cls-1" width="189.66" height="189.66"/><polygon class="cls-2" points="80.57 81.16 80.57 88.29 76.08 92.78 61.39 92.78 57.17 88.56 61.19 84.55 64.22 87.58 73.17 87.58 74.66 86.08 74.66 83.33 73.56 82.22 61.98 81.51 57.88 77.42 57.88 70.48 62.37 65.99 76.12 65.99 80.18 70.05 76.16 74.07 73.28 71.19 65.29 71.19 63.79 72.69 63.79 75.25 64.89 76.35 76.47 77.06 80.57 81.16"/><polygon class="cls-2" points="107.8 88.29 103.31 92.78 90.58 92.78 85.3 87.5 85.3 71.27 90.58 65.99 103.03 65.99 107.52 70.48 103.5 74.5 100.27 71.27 93.38 71.27 91.21 73.44 91.21 85.33 93.38 87.5 100.55 87.5 103.78 84.27 107.8 88.29"/><path class="cls-2" d="M129.15,87.58H118.36l-1.85,5.2h-6.07L120.92,66h6l10.47,26.79H131Zm-1.89-5.28-3.51-9.81-3.5,9.81Z"/><polygon class="cls-2" points="162.05 87.5 162.05 92.78 142.04 92.78 142.04 65.99 147.95 65.99 147.95 87.5 162.05 87.5"/><polygon class="cls-2" points="172.92 71.27 172.92 76.71 186.55 76.71 186.55 81.99 172.92 81.99 172.92 87.5 188.52 87.5 188.52 92.78 167.01 92.78 167.01 65.99 188.52 65.99 188.52 71.27 172.92 71.27"/><path class="cls-2" d="M125,107.3v16.23l-5.28,5.28H103.33l-5.28-5.28V107.3l5.28-5.28h16.39Zm-5.91,14.06V109.47l-2.17-2.17H106.13L104,109.47v11.89l2.17,2.17h10.79Z"/><polygon class="cls-2" points="153.92 102.02 153.92 128.81 149.07 128.81 136.7 111.28 136.7 128.81 131.07 128.81 131.07 102.02 136.55 102.02 148.29 118.68 148.29 102.02 153.92 102.02"/><polygon class="cls-2" points="181.08 128.81 188.52 128.81 176.98 115.02 187.93 102.02 180.96 102.02 171.98 112.52 166.61 112.52 166.61 102.02 160.7 102.02 160.7 128.81 166.61 128.81 166.61 117.79 171.95 117.79 181.08 128.81"/><polygon class="cls-2" points="86 102.02 75.35 122.01 64.7 102.02 58.75 102.02 58.75 128.81 64.38 128.81 64.38 112.07 73.31 128.81 76.99 128.81 76.99 128.76 77.04 128.81 78.01 127.01 86.04 112.07 86.04 128.81 91.95 128.81 91.95 102.02 86 102.02"/></g></g></svg>