<svg xmlns="http://www.w3.org/2000/svg" viewBox="0 0 245 64"><defs><style>.cls-1{fill:#ff3c4b;}.cls-2{fill:#fff;}</style></defs><title>logo</title><g id="Layer_2" data-name="Layer 2"><g id="Layer_1-2" data-name="Layer 1"><rect class="cls-1" width="245" height="64"/><polygon class="cls-2" points="40.97 33.31 40.97 38.58 37.65 41.91 26.78 41.91 23.67 38.79 26.64 35.82 28.88 38.06 35.49 38.06 36.6 36.95 36.6 34.91 35.79 34.1 27.22 33.57 24.19 30.54 24.19 25.42 27.51 22.09 37.68 22.09 40.68 25.09 37.71 28.07 35.58 25.94 29.67 25.94 28.56 27.05 28.56 28.94 29.38 29.76 37.94 30.28 40.97 33.31"/><polygon class="cls-2" points="61.11 38.58 57.78 41.91 48.37 41.91 44.47 38 44.47 26 48.37 22.09 57.58 22.09 60.9 25.42 57.93 28.39 55.54 26 50.44 26 48.84 27.6 48.84 36.4 50.44 38 55.74 38 58.13 35.61 61.11 38.58"/><path class="cls-2" d="M76.9,38.06h-8l-1.37,3.85H63.06l7.75-19.82h4.4L83,41.91H78.27Zm-1.4-3.9L72.91,26.9l-2.6,7.26Z"/><polygon class="cls-2" points="101.23 38 101.23 41.91 86.43 41.91 86.43 22.09 90.8 22.09 90.8 38 101.23 38"/><polygon class="cls-2" points="109.27 26 109.27 30.02 119.35 30.02 119.35 33.92 109.27 33.92 109.27 38 120.81 38 120.81 41.91 104.9 41.91 104.9 22.09 120.81 22.09 120.81 26 109.27 26"/><path class="cls-2" d="M174.36,26V38l-3.91,3.91H158.33L154.43,38V26l3.9-3.91h12.12ZM170,36.4V27.6L168.38,26h-8l-1.6,1.6v8.8l1.6,1.6h8Z"/><polygon class="cls-2" points="195.74 22.09 195.74 41.91 192.16 41.91 183.01 28.94 183.01 41.91 178.84 41.91 178.84 22.09 182.89 22.09 191.58 34.42 191.58 22.09 195.74 22.09"/><polygon class="cls-2" points="215.83 41.91 221.33 41.91 212.8 31.71 220.9 22.09 215.74 22.09 209.1 29.86 205.13 29.86 205.13 22.09 200.75 22.09 200.75 41.91 205.13 41.91 205.13 33.76 209.07 33.76 215.83 41.91"/><polygon class="cls-2" points="145.52 22.09 137.64 36.88 129.76 22.09 125.36 22.09 125.36 41.91 129.53 41.91 129.53 29.52 136.13 41.91 138.85 41.91 138.85 41.87 138.89 41.91 139.61 40.57 145.54 29.52 145.54 41.91 149.91 41.91 149.91 22.09 145.52 22.09"/></g></g></svg>